<mxfile host="65bd71144e">
    <diagram id="fjN8D4Odn0497USpxgly" name="Page-1">
        <mxGraphModel dx="1074" dy="1609" grid="1" gridSize="10" guides="1" tooltips="1" connect="1" arrows="1" fold="1" page="1" pageScale="1" pageWidth="1169" pageHeight="827" background="#ffffff" math="0" shadow="0">
            <root>
                <mxCell id="0"/>
                <mxCell id="1" parent="0"/>
                <mxCell id="162" value="int32" style="rounded=0;whiteSpace=wrap;html=1;fillColor=#fff2cc;strokeColor=#d6b656;" parent="1" vertex="1">
                    <mxGeometry x="120" y="-760" width="390" height="40" as="geometry"/>
                </mxCell>
                <mxCell id="168" value="string" style="rounded=0;whiteSpace=wrap;html=1;fillColor=#fff2cc;strokeColor=#d6b656;" parent="1" vertex="1">
                    <mxGeometry x="120" y="-720" width="390" height="40" as="geometry"/>
                </mxCell>
                <mxCell id="169" value="string" style="rounded=0;whiteSpace=wrap;html=1;fillColor=#fff2cc;strokeColor=#d6b656;" parent="1" vertex="1">
                    <mxGeometry x="120" y="-680" width="390" height="40" as="geometry"/>
                </mxCell>
                <mxCell id="170" value="Group" style="rounded=0;whiteSpace=wrap;html=1;fillColor=#ffe6cc;strokeColor=#d79b00;" parent="1" vertex="1">
                    <mxGeometry x="140" y="-620" width="180" height="40" as="geometry"/>
                </mxCell>
                <mxCell id="171" value="Parameter" style="rounded=0;whiteSpace=wrap;html=1;fillColor=#ffe6cc;strokeColor=#d79b00;" parent="1" vertex="1">
                    <mxGeometry x="329" y="-620" width="181" height="40" as="geometry"/>
                </mxCell>
                <mxCell id="172" value="id" style="rounded=0;whiteSpace=wrap;html=1;" parent="1" vertex="1">
                    <mxGeometry x="140" y="-580" width="80" height="40" as="geometry"/>
                </mxCell>
                <mxCell id="173" value="description" style="rounded=0;whiteSpace=wrap;html=1;fillColor=#ffe6cc;strokeColor=#d79b00;" parent="1" vertex="1">
                    <mxGeometry x="140" y="-500" width="80" height="40" as="geometry"/>
                </mxCell>
                <mxCell id="174" value="name" style="rounded=0;whiteSpace=wrap;html=1;fillColor=#ffe6cc;strokeColor=#d79b00;" parent="1" vertex="1">
                    <mxGeometry x="140" y="-540" width="80" height="40" as="geometry"/>
                </mxCell>
                <mxCell id="175" value="id" style="rounded=0;whiteSpace=wrap;html=1;fillColor=#ffe6cc;strokeColor=#d79b00;" parent="1" vertex="1">
                    <mxGeometry x="140" y="-580" width="80" height="40" as="geometry"/>
                </mxCell>
                <mxCell id="177" value="string" style="rounded=0;whiteSpace=wrap;html=1;fillColor=#fff2cc;strokeColor=#d6b656;" parent="1" vertex="1">
                    <mxGeometry x="220" y="-500" width="100" height="40" as="geometry"/>
                </mxCell>
                <mxCell id="178" value="string" style="rounded=0;whiteSpace=wrap;html=1;fillColor=#fff2cc;strokeColor=#d6b656;" parent="1" vertex="1">
                    <mxGeometry x="220" y="-540" width="100" height="40" as="geometry"/>
                </mxCell>
                <mxCell id="179" value="int32" style="rounded=0;whiteSpace=wrap;html=1;fillColor=#fff2cc;strokeColor=#d6b656;" parent="1" vertex="1">
                    <mxGeometry x="219.5" y="-580" width="100" height="40" as="geometry"/>
                </mxCell>
                <mxCell id="180" value="items" style="rounded=0;whiteSpace=wrap;html=1;fillColor=#ffe6cc;strokeColor=#d79b00;" parent="1" vertex="1">
                    <mxGeometry x="140" y="-460" width="80" height="40" as="geometry"/>
                </mxCell>
                <mxCell id="181" value="Group" style="rounded=0;whiteSpace=wrap;html=1;fillColor=#fff2cc;strokeColor=#d6b656;" parent="1" vertex="1">
                    <mxGeometry x="228" y="-453" width="43" height="33" as="geometry"/>
                </mxCell>
                <mxCell id="182" value="Para-&lt;br&gt;meter" style="rounded=0;whiteSpace=wrap;html=1;fillColor=#fff2cc;strokeColor=#d6b656;" parent="1" vertex="1">
                    <mxGeometry x="276" y="-453" width="44" height="33" as="geometry"/>
                </mxCell>
                <mxCell id="188" value="string" style="rounded=0;whiteSpace=wrap;html=1;fillColor=#fff2cc;strokeColor=#d6b656;" parent="1" vertex="1">
                    <mxGeometry x="409.5" y="-500" width="100.5" height="40" as="geometry"/>
                </mxCell>
                <mxCell id="189" value="string" style="rounded=0;whiteSpace=wrap;html=1;fillColor=#fff2cc;strokeColor=#d6b656;" parent="1" vertex="1">
                    <mxGeometry x="409.5" y="-540" width="100.5" height="40" as="geometry"/>
                </mxCell>
                <mxCell id="190" value="int32" style="rounded=0;whiteSpace=wrap;html=1;fillColor=#fff2cc;strokeColor=#d6b656;" parent="1" vertex="1">
                    <mxGeometry x="409.5" y="-580" width="100.5" height="40" as="geometry"/>
                </mxCell>
                <mxCell id="196" value="&lt;b&gt;Schema&lt;/b&gt;" style="rounded=0;whiteSpace=wrap;html=1;align=center;fillColor=#dae8fc;strokeColor=#6c8ebf;" parent="1" vertex="1">
                    <mxGeometry x="40" y="-800" width="470" height="40" as="geometry"/>
                </mxCell>
                <mxCell id="197" value="" style="rounded=0;whiteSpace=wrap;html=1;fillColor=#e1d5e7;strokeColor=#9673a6;" parent="1" vertex="1">
                    <mxGeometry x="319.5" y="-620" width="10" height="200" as="geometry"/>
                </mxCell>
                <mxCell id="199" value="array of unions" style="rounded=0;whiteSpace=wrap;html=1;fillColor=#e1d5e7;strokeColor=#9673a6;" parent="1" vertex="1">
                    <mxGeometry x="120" y="-640" width="390" height="20" as="geometry"/>
                </mxCell>
                <mxCell id="200" value="" style="rounded=0;whiteSpace=wrap;html=1;fillColor=#e1d5e7;strokeColor=#9673a6;gradientColor=none;" parent="1" vertex="1">
                    <mxGeometry x="120" y="-620" width="20" height="200" as="geometry"/>
                </mxCell>
                <mxCell id="201" value="" style="rounded=0;whiteSpace=wrap;html=1;fillColor=#e1d5e7;strokeColor=none;gradientColor=none;" parent="1" vertex="1">
                    <mxGeometry x="120.5" y="-630" width="19" height="13" as="geometry"/>
                </mxCell>
                <mxCell id="203" value="" style="rounded=0;whiteSpace=wrap;html=1;fillColor=#e1d5e7;strokeColor=none;gradientColor=none;" parent="1" vertex="1">
                    <mxGeometry x="320" y="-624" width="9" height="16" as="geometry"/>
                </mxCell>
                <mxCell id="204" value="array of unions" style="rounded=0;whiteSpace=wrap;html=1;fillColor=#e1d5e7;strokeColor=#9673a6;fontSize=6;" parent="1" vertex="1">
                    <mxGeometry x="220" y="-460" width="99.5" height="7" as="geometry"/>
                </mxCell>
                <mxCell id="206" value="" style="rounded=0;whiteSpace=wrap;html=1;fillColor=#e1d5e7;strokeColor=#9673a6;" parent="1" vertex="1">
                    <mxGeometry x="271" y="-453" width="5" height="33" as="geometry"/>
                </mxCell>
                <mxCell id="214" value="" style="rounded=0;whiteSpace=wrap;html=1;fillColor=#e1d5e7;strokeColor=#9673a6;" parent="1" vertex="1">
                    <mxGeometry x="220" y="-453" width="8" height="33" as="geometry"/>
                </mxCell>
                <mxCell id="205" value="" style="rounded=0;whiteSpace=wrap;html=1;fillColor=#e1d5e7;strokeColor=none;" parent="1" vertex="1">
                    <mxGeometry x="271.5" y="-454" width="4" height="10.5" as="geometry"/>
                </mxCell>
                <mxCell id="216" value="" style="rounded=0;whiteSpace=wrap;html=1;fillColor=#e1d5e7;strokeColor=none;" parent="1" vertex="1">
                    <mxGeometry x="220.5" y="-456" width="7" height="9.5" as="geometry"/>
                </mxCell>
                <mxCell id="217" value="" style="rounded=0;whiteSpace=wrap;html=1;fillColor=#d5e8d4;strokeColor=#82b366;" parent="1" vertex="1">
                    <mxGeometry x="120" y="-420" width="390" height="40" as="geometry"/>
                </mxCell>
                <mxCell id="218" value="" style="rounded=0;whiteSpace=wrap;html=1;fillColor=#d5e8d4;strokeColor=#82b366;" parent="1" vertex="1">
                    <mxGeometry x="120" y="-380" width="390" height="40" as="geometry"/>
                </mxCell>
                <mxCell id="161" value="id" style="rounded=0;whiteSpace=wrap;html=1;align=center;fillColor=#dae8fc;strokeColor=#6c8ebf;" parent="1" vertex="1">
                    <mxGeometry x="40" y="-760" width="80" height="40" as="geometry"/>
                </mxCell>
                <mxCell id="163" value="name" style="rounded=0;whiteSpace=wrap;html=1;fillColor=#dae8fc;strokeColor=#6c8ebf;" parent="1" vertex="1">
                    <mxGeometry x="40" y="-720" width="80" height="40" as="geometry"/>
                </mxCell>
                <mxCell id="166" value="description" style="rounded=0;whiteSpace=wrap;html=1;fillColor=#dae8fc;strokeColor=#6c8ebf;" parent="1" vertex="1">
                    <mxGeometry x="40" y="-680" width="80" height="40" as="geometry"/>
                </mxCell>
                <mxCell id="167" value="items" style="rounded=0;whiteSpace=wrap;html=1;fillColor=#dae8fc;strokeColor=#6c8ebf;" parent="1" vertex="1">
                    <mxGeometry x="40" y="-640" width="80" height="220" as="geometry"/>
                </mxCell>
                <mxCell id="195" value="set" style="rounded=0;whiteSpace=wrap;html=1;fillColor=#dae8fc;strokeColor=#6c8ebf;" parent="1" vertex="1">
                    <mxGeometry x="40" y="-380" width="80" height="40" as="geometry"/>
                </mxCell>
                <mxCell id="194" value="get" style="rounded=0;whiteSpace=wrap;html=1;fillColor=#dae8fc;strokeColor=#6c8ebf;" parent="1" vertex="1">
                    <mxGeometry x="40" y="-420" width="80" height="40" as="geometry"/>
                </mxCell>
                <mxCell id="184" value="description" style="rounded=0;whiteSpace=wrap;html=1;fillColor=#ffe6cc;strokeColor=#d79b00;" parent="1" vertex="1">
                    <mxGeometry x="329.5" y="-500" width="80" height="40" as="geometry"/>
                </mxCell>
                <mxCell id="185" value="name" style="rounded=0;whiteSpace=wrap;html=1;fillColor=#ffe6cc;strokeColor=#d79b00;" parent="1" vertex="1">
                    <mxGeometry x="329.5" y="-540" width="80" height="40" as="geometry"/>
                </mxCell>
                <mxCell id="186" value="id" style="rounded=0;whiteSpace=wrap;html=1;fillColor=#ffe6cc;strokeColor=#d79b00;" parent="1" vertex="1">
                    <mxGeometry x="329.5" y="-580" width="80" height="40" as="geometry"/>
                </mxCell>
                <mxCell id="191" value="type" style="rounded=0;whiteSpace=wrap;html=1;fillColor=#ffe6cc;strokeColor=#d79b00;" parent="1" vertex="1">
                    <mxGeometry x="329.5" y="-460" width="80" height="40" as="geometry"/>
                </mxCell>
                <mxCell id="234" value="" style="group" parent="1" vertex="1" connectable="0">
                    <mxGeometry x="417.5" y="-453" width="92.5" height="33" as="geometry"/>
                </mxCell>
                <mxCell id="222" value="&lt;font style=&quot;font-size: 6px ; line-height: 1&quot;&gt;bool&lt;/font&gt;" style="rounded=0;whiteSpace=wrap;html=1;fillColor=#fff2cc;strokeColor=#d6b656;fontSize=6;" parent="234" vertex="1">
                    <mxGeometry y="8.25" width="30.83333333333333" height="8.25" as="geometry"/>
                </mxCell>
                <mxCell id="223" value="&lt;font style=&quot;font-size: 6px; line-height: 1;&quot;&gt;string&lt;/font&gt;" style="rounded=0;whiteSpace=wrap;html=1;fillColor=#fff2cc;strokeColor=#d6b656;fontSize=6;" parent="234" vertex="1">
                    <mxGeometry width="30.83333333333333" height="8.25" as="geometry"/>
                </mxCell>
                <mxCell id="224" value="&lt;font style=&quot;font-size: 6px ; line-height: 1&quot;&gt;uint8&lt;/font&gt;" style="rounded=0;whiteSpace=wrap;html=1;fillColor=#fff2cc;strokeColor=#d6b656;fontSize=6;" parent="234" vertex="1">
                    <mxGeometry x="30.83333333333333" width="30.83333333333333" height="8.25" as="geometry"/>
                </mxCell>
                <mxCell id="225" value="&lt;font style=&quot;font-size: 6px ; line-height: 1&quot;&gt;uint16&lt;/font&gt;" style="rounded=0;whiteSpace=wrap;html=1;fillColor=#fff2cc;strokeColor=#d6b656;fontSize=6;" parent="234" vertex="1">
                    <mxGeometry x="30.83333333333333" y="8.25" width="30.83333333333333" height="8.25" as="geometry"/>
                </mxCell>
                <mxCell id="226" value="&lt;font style=&quot;font-size: 6px ; line-height: 1&quot;&gt;uint32&lt;/font&gt;" style="rounded=0;whiteSpace=wrap;html=1;fillColor=#fff2cc;strokeColor=#d6b656;fontSize=6;" parent="234" vertex="1">
                    <mxGeometry x="30.83333333333333" y="16.5" width="30.83333333333333" height="8.25" as="geometry"/>
                </mxCell>
                <mxCell id="227" value="&lt;font style=&quot;font-size: 6px ; line-height: 1&quot;&gt;int32&lt;/font&gt;" style="rounded=0;whiteSpace=wrap;html=1;fillColor=#fff2cc;strokeColor=#d6b656;fontSize=6;" parent="234" vertex="1">
                    <mxGeometry x="61.66666666666666" y="16.5" width="30.83333333333333" height="8.25" as="geometry"/>
                </mxCell>
                <mxCell id="228" value="&lt;font style=&quot;font-size: 6px ; line-height: 1&quot;&gt;uint64&lt;/font&gt;" style="rounded=0;whiteSpace=wrap;html=1;fillColor=#fff2cc;strokeColor=#d6b656;fontSize=6;" parent="234" vertex="1">
                    <mxGeometry x="30.83333333333333" y="24.750000000000004" width="30.83333333333333" height="8.25" as="geometry"/>
                </mxCell>
                <mxCell id="229" value="&lt;font style=&quot;font-size: 6px ; line-height: 1&quot;&gt;int64&lt;/font&gt;" style="rounded=0;whiteSpace=wrap;html=1;fillColor=#fff2cc;strokeColor=#d6b656;fontSize=6;" parent="234" vertex="1">
                    <mxGeometry x="61.66666666666666" y="24.750000000000004" width="30.83333333333333" height="8.25" as="geometry"/>
                </mxCell>
                <mxCell id="230" value="&lt;font style=&quot;font-size: 6px ; line-height: 1&quot;&gt;int16&lt;/font&gt;" style="rounded=0;whiteSpace=wrap;html=1;fillColor=#fff2cc;strokeColor=#d6b656;fontSize=6;" parent="234" vertex="1">
                    <mxGeometry x="61.66666666666666" y="8.25" width="30.83333333333333" height="8.25" as="geometry"/>
                </mxCell>
                <mxCell id="231" value="&lt;font style=&quot;font-size: 6px ; line-height: 1&quot;&gt;int8&lt;/font&gt;" style="rounded=0;whiteSpace=wrap;html=1;fillColor=#fff2cc;strokeColor=#d6b656;fontSize=6;" parent="234" vertex="1">
                    <mxGeometry x="61.66666666666666" width="30.83333333333333" height="8.25" as="geometry"/>
                </mxCell>
                <mxCell id="232" value="&lt;font style=&quot;font-size: 6px ; line-height: 1&quot;&gt;float64&lt;/font&gt;" style="rounded=0;whiteSpace=wrap;html=1;fillColor=#fff2cc;strokeColor=#d6b656;fontSize=6;" parent="234" vertex="1">
                    <mxGeometry y="24.750000000000004" width="30.83333333333333" height="8.25" as="geometry"/>
                </mxCell>
                <mxCell id="233" value="&lt;font style=&quot;font-size: 6px ; line-height: 1&quot;&gt;float32&lt;/font&gt;" style="rounded=0;whiteSpace=wrap;html=1;fillColor=#fff2cc;strokeColor=#d6b656;fontSize=6;" parent="234" vertex="1">
                    <mxGeometry y="16.5" width="30.83333333333333" height="8.25" as="geometry"/>
                </mxCell>
                <mxCell id="236" value="&lt;font style=&quot;font-size: 6px; line-height: 0.5;&quot;&gt;union&lt;/font&gt;" style="rounded=0;whiteSpace=wrap;html=1;fillColor=#e1d5e7;strokeColor=#9673a6;fontSize=6;" parent="1" vertex="1">
                    <mxGeometry x="409.5" y="-460" width="100.5" height="7" as="geometry"/>
                </mxCell>
                <mxCell id="238" value="" style="rounded=0;whiteSpace=wrap;html=1;fillColor=#e1d5e7;strokeColor=#9673a6;" parent="1" vertex="1">
                    <mxGeometry x="409.5" y="-453" width="8" height="33" as="geometry"/>
                </mxCell>
                <mxCell id="240" value="" style="rounded=0;whiteSpace=wrap;html=1;fillColor=#e1d5e7;strokeColor=none;" parent="1" vertex="1">
                    <mxGeometry x="410" y="-456" width="7" height="9.5" as="geometry"/>
                </mxCell>
                <mxCell id="242" value="&lt;font style=&quot;font-size: 12px&quot;&gt;callback&lt;br&gt;&lt;/font&gt;" style="text;html=1;align=center;verticalAlign=middle;resizable=0;points=[];autosize=1;strokeColor=none;fillColor=none;fontSize=6;" parent="1" vertex="1">
                    <mxGeometry x="120" y="-405" width="60" height="10" as="geometry"/>
                </mxCell>
                <mxCell id="243" value="&lt;font style=&quot;font-size: 12px&quot;&gt;callback&lt;br&gt;&lt;/font&gt;" style="text;html=1;align=center;verticalAlign=middle;resizable=0;points=[];autosize=1;strokeColor=none;fillColor=none;fontSize=6;" parent="1" vertex="1">
                    <mxGeometry x="120.5" y="-365" width="60" height="10" as="geometry"/>
                </mxCell>
                <mxCell id="244" value="param_id" style="rounded=0;whiteSpace=wrap;html=1;" parent="1" vertex="1">
                    <mxGeometry x="180.5" y="-411.75" width="60" height="23.5" as="geometry"/>
                </mxCell>
                <mxCell id="245" value="instance" style="rounded=0;whiteSpace=wrap;html=1;" parent="1" vertex="1">
                    <mxGeometry x="290.5" y="-411.75" width="60" height="23.5" as="geometry"/>
                </mxCell>
                <mxCell id="246" value="registry_&lt;br&gt;instance_t" style="rounded=0;whiteSpace=wrap;html=1;fontSize=10;" parent="1" vertex="1">
                    <mxGeometry x="350.5" y="-411.75" width="70" height="23.5" as="geometry"/>
                </mxCell>
                <mxCell id="247" value="int32" style="rounded=0;whiteSpace=wrap;html=1;" parent="1" vertex="1">
                    <mxGeometry x="240.5" y="-411.75" width="40" height="23.5" as="geometry"/>
                </mxCell>
                <mxCell id="248" value="buf" style="rounded=0;whiteSpace=wrap;html=1;" parent="1" vertex="1">
                    <mxGeometry x="430.5" y="-411.75" width="30" height="23.5" as="geometry"/>
                </mxCell>
                <mxCell id="249" value="void *" style="rounded=0;whiteSpace=wrap;html=1;" parent="1" vertex="1">
                    <mxGeometry x="460.5" y="-411.75" width="40" height="23.5" as="geometry"/>
                </mxCell>
                <mxCell id="256" value="param_id" style="rounded=0;whiteSpace=wrap;html=1;" parent="1" vertex="1">
                    <mxGeometry x="180" y="-371.75" width="60" height="23.5" as="geometry"/>
                </mxCell>
                <mxCell id="257" value="instance" style="rounded=0;whiteSpace=wrap;html=1;" parent="1" vertex="1">
                    <mxGeometry x="290" y="-371.75" width="60" height="23.5" as="geometry"/>
                </mxCell>
                <mxCell id="258" value="registry_&lt;br&gt;instance_t" style="rounded=0;whiteSpace=wrap;html=1;fontSize=10;" parent="1" vertex="1">
                    <mxGeometry x="350" y="-371.75" width="70" height="23.5" as="geometry"/>
                </mxCell>
                <mxCell id="259" value="int32" style="rounded=0;whiteSpace=wrap;html=1;" parent="1" vertex="1">
                    <mxGeometry x="240" y="-371.75" width="40" height="23.5" as="geometry"/>
                </mxCell>
                <mxCell id="260" value="val" style="rounded=0;whiteSpace=wrap;html=1;" parent="1" vertex="1">
                    <mxGeometry x="430" y="-371.75" width="30" height="23.5" as="geometry"/>
                </mxCell>
                <mxCell id="261" value="void *" style="rounded=0;whiteSpace=wrap;html=1;" parent="1" vertex="1">
                    <mxGeometry x="460" y="-371.75" width="40" height="23.5" as="geometry"/>
                </mxCell>
            </root>
        </mxGraphModel>
    </diagram>
</mxfile>